<svg xmlns="http://www.w3.org/2000/svg" viewBox="0 0 158 50" width="158" height="50">
  <path d="M8.82 12.83L29.02 32.73L29.02 12.83L34.61 12.83L34.61 40L29.02 40L8.82 20.26L8.82 40L3.23 40L3.23 12.83L8.82 12.83ZM59.39 33.07L59.39 33.07L64.68 33.07Q64.34 35.21 62.90 36.89Q61.45 38.57 58.97 39.54Q56.49 40.50 52.92 40.50L52.92 40.50Q48.93 40.50 45.86 39.22Q42.80 37.94 41.08 35.51Q39.35 33.07 39.35 29.63L39.35 29.63Q39.35 26.18 41.03 23.72Q42.71 21.27 45.72 19.97Q48.72 18.66 52.75 18.66L52.75 18.66Q56.87 18.66 59.60 19.97Q62.33 21.27 63.65 23.89Q64.97 26.52 64.76 30.59L64.76 30.59L44.86 30.59Q45.07 32.19 46.05 33.49Q47.04 34.79 48.74 35.55Q50.44 36.30 52.79 36.30L52.79 36.30Q55.40 36.30 57.14 35.40Q58.88 34.50 59.39 33.07ZM52.50 22.82L52.50 22.82Q49.48 22.82 47.59 24.14Q45.70 25.47 45.15 27.40L45.15 27.40L59.35 27.40Q59.14 25.30 57.35 24.06Q55.57 22.82 52.50 22.82ZM84.88 19.13L91.52 19.13L82.15 29.21L92.11 40L85.43 40L79.00 32.78L72.87 40L66.19 40L75.94 29.46L66.19 19.13L72.87 19.13L79.09 25.89L84.88 19.13ZM119.62 19.13L119.62 40L114.16 40L114.16 32.82Q114.11 32.94 114.07 33.07L114.07 33.07Q113.74 34.20 113.04 35.46Q112.35 36.72 111.26 37.88Q110.17 39.03 108.57 39.77Q106.97 40.50 104.79 40.50L104.79 40.50Q103.07 40.50 101.41 40.08Q99.75 39.66 98.41 38.68Q97.06 37.69 96.26 36.01Q95.47 34.33 95.47 31.77L95.47 31.77L95.47 19.13L100.93 19.13L100.93 30.84Q100.93 32.86 101.58 34.02Q102.23 35.17 103.49 35.63Q104.75 36.09 106.47 36.09L106.47 36.09Q108.74 36.09 110.38 35.11Q112.01 34.12 113.06 32.69L113.06 32.69Q113.74 31.68 114.16 30.76L114.16 30.76L114.16 19.13L119.62 19.13ZM123.73 33.07L123.73 33.07L128.77 33.07Q129.23 34.50 130.68 35.40Q132.13 36.30 134.48 36.30L134.48 36.30Q136.08 36.30 136.96 36.01Q137.84 35.72 138.18 35.15Q138.52 34.58 138.52 33.87L138.52 33.87Q138.52 32.99 137.97 32.50Q137.42 32.02 136.29 31.73Q135.16 31.43 133.39 31.18L133.39 31.18Q131.63 30.89 129.99 30.47Q128.35 30.05 127.09 29.35Q125.83 28.66 125.10 27.59Q124.36 26.52 124.36 24.96L124.36 24.96Q124.36 23.45 125.10 22.28Q125.83 21.10 127.16 20.30Q128.48 19.50 130.26 19.08Q132.05 18.66 134.11 18.66L134.11 18.66Q137.21 18.66 139.27 19.57Q141.33 20.47 142.36 22.09Q143.39 23.70 143.39 25.80L143.39 25.80L138.56 25.80Q138.22 24.25 137.21 23.56Q136.21 22.86 134.11 22.86L134.11 22.86Q132.05 22.86 131.00 23.49Q129.95 24.12 129.95 25.22L129.95 25.22Q129.95 26.10 130.60 26.58Q131.25 27.06 132.53 27.36Q133.81 27.65 135.74 27.99L135.74 27.99Q137.38 28.32 138.87 28.74Q140.36 29.16 141.54 29.81Q142.72 30.47 143.41 31.54Q144.10 32.61 144.10 34.25L144.10 34.25Q144.10 36.26 142.95 37.65Q141.79 39.03 139.65 39.77Q137.51 40.50 134.53 40.50L134.53 40.50Q131.88 40.50 129.97 39.94Q128.06 39.37 126.80 38.47Q125.54 37.56 124.85 36.53Q124.15 35.51 123.90 34.58Q123.65 33.66 123.73 33.07Z" fill="#F5F5F0"/>
  <path d="M147.62 35.21L153.96 35.21L153.96 40L147.62 40L147.62 35.21Z" fill="#FF6B00"/>
</svg>